<svg width="50" height="50" viewBox="0 0 50 50" fill="none" xmlns="http://www.w3.org/2000/svg">
<path d="M4.89453 20.7227C3.10937 20.7266 1.66016 22.1758 1.66016 23.9609V38.9531C1.66406 40.7383 3.10937 42.1836 4.89453 42.1875H7.0625V20.7031L4.89453 20.7227Z" fill="#C62828"/>
<path d="M45.2031 20.7227C46.9883 20.7266 48.4375 22.1758 48.4375 23.9609V38.9531C48.4336 40.7383 46.9883 42.1875 45.2031 42.1914H43.0352V20.707L45.2031 20.7227Z" fill="#C62828"/>
<path d="M44.207 21.2539L44.1602 17.3476C44.1484 15.668 42.7812 14.3125 41.1016 14.3203H26.1914V9.08203C28.1875 8.42187 29.2734 6.26952 28.6133 4.27343C27.9531 2.27734 25.8008 1.1914 23.8047 1.85156C21.8086 2.51171 20.7227 4.66406 21.3828 6.66015C21.7617 7.80468 22.6602 8.70703 23.8047 9.08203V14.3398H8.89844C7.22656 14.3437 5.87109 15.6953 5.85938 17.3672V45.4062C5.87109 47.0781 7.22656 48.4297 8.89844 48.4375H41.1016C42.7812 48.4414 44.1484 47.0859 44.1602 45.4062V42.5273H44.207V21.2539Z" fill="#90A4AE"/>
<path d="M25 7.03125C24.1367 7.03125 23.4375 6.33203 23.4375 5.46875C23.4375 4.60547 24.1367 3.90625 25 3.90625C25.8633 3.90625 26.5625 4.60547 26.5625 5.46875C26.5625 6.33203 25.8633 7.03125 25 7.03125Z" fill="#C62828"/>
<path d="M17.2461 36.8945H32.7578C34.1094 36.8945 35.207 37.9922 35.207 39.3438V39.5664C35.207 40.918 34.1094 42.0156 32.7578 42.0156H17.2461C15.8945 42.0156 14.7969 40.918 14.7969 39.5664V39.3438C14.7969 37.9922 15.8945 36.8945 17.2461 36.8945Z" fill="url(#paint0_linear_0_376)"/>
<path d="M21.8867 36.9023H20.9648V42.0156H21.8867V36.9023Z" fill="url(#paint1_linear_0_376)"/>
<path d="M25.4844 36.9023H24.5625V42.0156H25.4844V36.9023Z" fill="url(#paint2_linear_0_376)"/>
<path d="M29.0352 36.9023H28.1133V42.0156H29.0352V36.9023Z" fill="url(#paint3_linear_0_376)"/>
<path d="M32.8047 36.9023H31.8828V42.0156H32.8047V36.9023Z" fill="url(#paint4_linear_0_376)"/>
<path d="M18.1172 36.8945H17.1953V42.0078H18.1172V36.8945Z" fill="url(#paint5_linear_0_376)"/>
<path d="M25 33.332H22.918C22.7031 33.332 22.5273 33.1562 22.5273 32.9414C22.5273 32.8789 22.543 32.8203 22.5703 32.7656L23.6406 30.6523L24.6523 28.7852C24.7539 28.5937 24.9922 28.5234 25.1797 28.625C25.2461 28.6602 25.3008 28.7148 25.3398 28.7852L26.3594 30.7383L27.418 32.7656C27.5156 32.957 27.4414 33.1914 27.25 33.293C27.1953 33.3203 27.1367 33.3359 27.0742 33.3359L25 33.332Z" fill="#C62828"/>
<path d="M16.6562 30.59C19.1372 30.59 21.1484 28.5788 21.1484 26.0978C21.1484 23.6168 19.1372 21.6056 16.6562 21.6056C14.1753 21.6056 12.1641 23.6168 12.1641 26.0978C12.1641 28.5788 14.1753 30.59 16.6562 30.59Z" fill="url(#paint6_radial_0_376)"/>
<path d="M16.6562 30.59C19.1372 30.59 21.1484 28.5788 21.1484 26.0978C21.1484 23.6168 19.1372 21.6056 16.6562 21.6056C14.1753 21.6056 12.1641 23.6168 12.1641 26.0978C12.1641 28.5788 14.1753 30.59 16.6562 30.59Z" stroke="url(#paint7_linear_0_376)" stroke-width="2" stroke-miterlimit="10"/>
<path d="M33.2031 21.5938C30.7227 21.5938 28.7109 23.6055 28.7109 26.0859C28.7109 28.5664 30.7227 30.5781 33.2031 30.5781C35.6836 30.5781 37.6953 28.5664 37.6953 26.0859C37.6914 23.6055 35.6836 21.5977 33.2031 21.5938Z" fill="url(#paint8_radial_0_376)"/>
<path d="M33.2031 21.5938C30.7227 21.5938 28.7109 23.6055 28.7109 26.0859C28.7109 28.5664 30.7227 30.5781 33.2031 30.5781C35.6836 30.5781 37.6953 28.5664 37.6953 26.0859C37.6914 23.6055 35.6836 21.5977 33.2031 21.5938Z" stroke="url(#paint9_linear_0_376)" stroke-width="2" stroke-miterlimit="10"/>
<defs>
<linearGradient id="paint0_linear_0_376" x1="25.002" y1="42.0156" x2="25.002" y2="36.8945" gradientUnits="userSpaceOnUse">
<stop offset="0.12" stop-color="#E0E0E0"/>
<stop offset="0.52" stop-color="white"/>
<stop offset="1" stop-color="#EAEAEA"/>
</linearGradient>
<linearGradient id="paint1_linear_0_376" x1="21.4258" y1="42.0156" x2="21.4258" y2="36.9023" gradientUnits="userSpaceOnUse">
<stop stop-color="#333333"/>
<stop offset="0.55" stop-color="#666666"/>
<stop offset="1" stop-color="#333333"/>
</linearGradient>
<linearGradient id="paint2_linear_0_376" x1="25.0234" y1="42.0156" x2="25.0234" y2="36.9023" gradientUnits="userSpaceOnUse">
<stop stop-color="#333333"/>
<stop offset="0.55" stop-color="#666666"/>
<stop offset="1" stop-color="#333333"/>
</linearGradient>
<linearGradient id="paint3_linear_0_376" x1="28.5742" y1="42.0156" x2="28.5742" y2="36.9023" gradientUnits="userSpaceOnUse">
<stop stop-color="#333333"/>
<stop offset="0.55" stop-color="#666666"/>
<stop offset="1" stop-color="#333333"/>
</linearGradient>
<linearGradient id="paint4_linear_0_376" x1="32.3438" y1="42.0156" x2="32.3438" y2="36.9023" gradientUnits="userSpaceOnUse">
<stop stop-color="#333333"/>
<stop offset="0.55" stop-color="#666666"/>
<stop offset="1" stop-color="#333333"/>
</linearGradient>
<linearGradient id="paint5_linear_0_376" x1="17.6563" y1="42.0078" x2="17.6563" y2="36.8945" gradientUnits="userSpaceOnUse">
<stop stop-color="#333333"/>
<stop offset="0.55" stop-color="#666666"/>
<stop offset="1" stop-color="#333333"/>
</linearGradient>
<radialGradient id="paint6_radial_0_376" cx="0" cy="0" r="1" gradientUnits="userSpaceOnUse" gradientTransform="translate(16.6562 26.0978) scale(4.49219)">
<stop offset="0.48" stop-color="white"/>
<stop offset="0.77" stop-color="#FDFDFD"/>
<stop offset="0.88" stop-color="#F6F6F6"/>
<stop offset="0.96" stop-color="#EBEBEB"/>
<stop offset="1" stop-color="#E0E0E0"/>
</radialGradient>
<linearGradient id="paint7_linear_0_376" x1="11.7734" y1="26.0978" x2="21.5391" y2="26.0978" gradientUnits="userSpaceOnUse">
<stop stop-color="#333333"/>
<stop offset="0.55" stop-color="#666666"/>
<stop offset="1" stop-color="#333333"/>
</linearGradient>
<radialGradient id="paint8_radial_0_376" cx="0" cy="0" r="1" gradientUnits="userSpaceOnUse" gradientTransform="translate(33.1836 26.0859) scale(4.49219)">
<stop offset="0.48" stop-color="white"/>
<stop offset="0.77" stop-color="#FDFDFD"/>
<stop offset="0.88" stop-color="#F6F6F6"/>
<stop offset="0.96" stop-color="#EBEBEB"/>
<stop offset="1" stop-color="#E0E0E0"/>
</radialGradient>
<linearGradient id="paint9_linear_0_376" x1="28.3008" y1="26.0859" x2="38.0664" y2="26.0859" gradientUnits="userSpaceOnUse">
<stop stop-color="#333333"/>
<stop offset="0.55" stop-color="#666666"/>
<stop offset="1" stop-color="#333333"/>
</linearGradient>
</defs>
</svg>
