<svg width="35" height="49" viewBox="0 0 35 49" fill="none" xmlns="http://www.w3.org/2000/svg">
<path d="M31.9298 3.325C30.3098 3.085 29.1018 4.693 28.0658 7.125C27.3218 8.869 23.2338 19.929 23.2338 19.929C23.1058 20.293 22.4978 20.241 22.4378 19.861C21.9618 16.777 20.7018 9.761 19.9418 5.693C19.1418 1.421 17.6858 0.285003 16.2178 0.465003C13.6898 0.777003 14.0338 4.685 14.2978 7.485C14.5618 10.285 15.1738 19.013 16.0458 25.289C16.2018 26.405 28.8818 27.601 28.8818 27.601C28.8858 25.125 31.9778 14.537 33.1258 9.885C33.8818 6.805 34.2378 3.669 31.9298 3.325Z" fill="#FFCA28"/>
<path d="M15.0218 47.453C11.4658 47.441 5.98984 46.685 2.49784 40.281C0.357836 36.357 -0.314164 31.429 0.129836 27.025C0.417836 24.153 1.35784 21.881 3.12184 21.045C5.63784 19.853 7.48984 21.445 7.48984 21.445C7.48984 21.445 6.84584 17.477 9.86984 16.509C13.7578 15.261 14.8898 19.357 14.8898 19.357L28.5978 25.205C28.5978 25.205 28.5938 32.217 28.1498 36.321C26.9338 47.629 18.5778 47.465 15.0218 47.453Z" fill="#FFCA28"/>
<path d="M9.49386 24.957L8.86586 26.549C9.20186 29.233 5.99786 30.957 4.37786 29.885C4.20986 30.673 4.03386 32.253 5.63386 34.305C6.68586 35.657 8.90186 36.941 10.4579 37.657C12.3219 38.513 13.6859 39.345 14.1059 41.005C14.2219 38.637 15.4179 36.341 17.2939 34.885C17.8019 34.489 18.3619 34.153 18.8299 33.713L18.4059 32.413C16.0899 33.049 12.0299 32.433 11.0299 30.253C10.7899 29.729 10.0899 26.741 12.5579 26.677C16.8779 26.565 20.0699 24.769 20.0699 24.769C17.4619 24.137 16.5539 22.993 16.3979 22.745C16.2859 22.565 15.0859 22.641 14.9059 22.741C14.9059 22.741 14.7699 24.357 12.6499 25.065C10.8739 25.661 9.75786 24.989 9.49386 24.957Z" fill="#FFB300"/>
<path d="M15.1339 26.373L16.6979 26.105C16.6979 19.541 13.6899 17.481 13.6899 17.481C14.4899 19.705 15.1699 23.153 15.1339 26.373Z" fill="#EDA600"/>
<path d="M10.8019 29.885C10.6059 28.189 9.69786 24.105 8.40986 22.421C7.12186 20.737 5.63386 20.697 5.63386 20.697C8.96986 24.885 9.12986 26.997 9.16586 29.233C9.18586 30.357 8.94586 31.749 7.63786 32.145C6.77386 32.405 5.64586 32.525 3.00586 27.525C2.67786 26.905 2.19786 26.565 1.80986 26.393C1.57386 26.289 1.32186 26.513 1.40586 26.757C2.72186 30.533 4.58186 33.809 6.97786 33.813C7.33786 33.813 7.69786 33.669 8.10986 33.625C10.7659 33.345 10.8019 29.885 10.8019 29.885Z" fill="#EDA600"/>
<path d="M21.6219 18.409C21.1299 16.509 20.2579 12.301 19.5859 7.293C19.1379 3.945 18.7299 2.381 18.0099 1.473C17.2899 0.564998 16.1579 0.468998 16.2179 0.468998C19.0739 -0.0470017 20.1539 2.405 20.6579 5.353C21.5059 10.321 22.7739 19.285 23.0179 20.141C23.0179 20.137 22.1819 20.565 21.6219 18.409Z" fill="#EDA600"/>
<path d="M32.6058 3.553C33.5978 4.913 33.1618 7.361 32.8298 8.765C32.5498 9.945 29.6818 19.473 28.5978 23.601C28.3898 24.385 28.1258 25.309 28.0778 26.677C28.0298 28.049 27.9298 31.025 27.9298 31.025C27.4538 29.993 26.4738 28.773 25.8258 27.921C21.3618 22.145 19.8618 25.585 13.1858 25.877C8.16184 25.913 9.19384 32.937 15.4978 33.345C15.4978 33.345 17.1858 33.549 17.8418 33.265C14.5938 34.657 13.0818 38.325 13.4938 43.685C13.7578 44.449 14.5938 36.233 19.2418 34.381C19.5578 34.253 19.8218 34.833 20.6778 35.633C20.9258 35.865 21.6098 36.321 22.0378 36.377C22.4658 36.433 22.2458 35.977 22.1858 35.909C21.4538 35.073 19.8378 32.421 19.6858 32.097C19.5178 31.733 18.9378 31.457 18.4418 31.557C11.3858 32.997 11.4338 28.625 11.7498 28.029C12.0658 27.429 12.5698 27.441 13.2498 27.413C16.4298 27.277 18.3338 26.613 19.4938 26.249C21.7538 25.297 24.3258 28.001 26.1858 31.017C26.7018 31.821 27.3418 32.993 27.4658 35.981C27.5858 38.889 26.0218 46.457 16.2858 47.129C11.7298 47.445 9.40984 46.401 6.94984 45.021C5.98984 44.481 5.18984 43.741 5.03784 43.601C4.88584 43.461 4.80584 43.497 4.88984 43.633C4.97384 43.769 7.72584 48.381 15.8098 48.397C20.4098 48.405 24.1178 46.861 26.3978 43.829C27.9898 41.713 28.8578 39.745 29.1178 36.133C29.2018 34.953 29.4498 29.885 29.5098 27.361C29.5338 26.305 29.9018 24.681 29.9018 24.681C30.0458 23.761 33.4138 11.169 33.4138 11.169C33.4138 11.169 33.9498 9.297 34.1658 7.709C34.6218 4.441 32.6058 3.553 32.6058 3.553Z" fill="#EDA600"/>
</svg>
