<svg width="50" height="50" viewBox="0 0 50 50" fill="none" xmlns="http://www.w3.org/2000/svg">
<path d="M42.1992 48.4375L38.6328 37.8359C38.6406 37.8164 38.6484 37.7969 38.6562 37.7813C38.7812 37.4883 38.6445 37.1523 38.3555 37.0234L38.2617 36.7422C38.2344 36.8125 38.2031 36.8906 38.168 36.9766C37.9219 36.9531 37.6758 37.0898 37.5742 37.332C36.8672 39.0234 36.0781 40.2344 32.9844 39.2188C30.4883 38.3984 28.3633 38.2422 25.1133 38.2422C25.0352 38.2422 24.957 38.2422 24.8789 38.2422C21.6289 38.2422 19.5039 38.3984 17.0078 39.2188C13.9141 40.2344 13.125 39.0234 12.418 37.332C12.3164 37.0938 12.0781 36.957 11.832 36.9766C11.793 36.8906 11.7617 36.8125 11.7344 36.7422L11.6406 37.0234C11.3516 37.1523 11.2188 37.4883 11.3398 37.7813C11.3477 37.8008 11.3555 37.8203 11.3633 37.8398L7.80078 48.4375H42.1992Z" fill="url(#paint0_linear_0_267)"/>
<path d="M38.6445 31.3398C38.1562 30.4492 38.7773 29.543 39.8398 28.4219C41.5234 26.6406 43.3555 22.5156 41.6523 18.3242C41.6641 18.3008 41.3164 17.5937 41.3281 17.5703L40.625 17.5352C40.4023 17.5039 32.7109 17.4883 25.0117 17.4883C17.3125 17.4883 9.62109 17.5039 9.39844 17.5352C9.39844 17.5352 8.36328 18.3008 8.37109 18.3242C6.67187 22.5156 8.5 26.6406 10.1836 28.4219C11.2422 29.543 11.8633 30.4492 11.3789 31.3398C10.9062 32.2031 9.5 32.332 9.5 32.332C9.5 32.332 9.82422 33.2188 10.6055 33.6953C11.3281 34.1367 12.2187 34.2383 12.832 34.2539C12.832 34.2539 15.2344 37.5898 21.5156 37.5898H25.0117H28.5078C34.7891 37.5898 37.1914 34.2539 37.1914 34.2539C37.8047 34.2383 38.6953 34.1367 39.418 33.6953C40.1992 33.2188 40.5234 32.332 40.5234 32.332C40.5234 32.332 39.1172 32.2031 38.6445 31.3398Z" fill="#543930"/>
<path d="M25.0078 37.5898V33.8867L36.168 33L37.1836 34.2539C37.1836 34.2539 34.7812 37.5898 28.5 37.5898H25.0078Z" fill="url(#paint1_radial_0_267)"/>
<path d="M37.1602 32.6367C35.4883 30.0898 39.1953 29.1367 39.1953 29.1367L39.1992 29.1406C38.5547 29.9453 38.2617 30.6484 38.6406 31.3398C39.1133 32.2031 40.5195 32.332 40.5195 32.332C40.5195 32.332 38.6055 34.0391 37.1602 32.6367Z" fill="url(#paint2_radial_0_267)"/>
<path d="M41.6602 18.3242C43.3203 22.3828 41.5742 26.5625 39.9375 28.3242C39.7148 28.5664 38.7617 29.5039 38.543 30.2539C38.543 30.2539 34.8164 25.0391 33.7031 21.9727C33.4805 21.3555 33.2734 20.7148 33.2461 20.0586C33.2266 19.5664 33.3008 18.9766 33.5859 18.5586C33.9336 18.043 41.4609 17.8906 41.4609 17.8906C41.4609 17.8945 41.6602 18.3242 41.6602 18.3242Z" fill="url(#paint3_radial_0_267)"/>
<path d="M8.375 18.3242C6.71484 22.3828 8.46094 26.5625 10.0977 28.3242C10.3242 28.5664 11.2734 29.5039 11.4922 30.2539C11.4922 30.2539 15.2187 25.0391 16.332 21.9727C16.5586 21.3555 16.7617 20.7148 16.7891 20.0586C16.8086 19.5664 16.7344 18.9766 16.4492 18.5586C16.1016 18.043 15.6953 18.1797 15.1055 18.1797C13.9805 18.1797 9.05469 17.8906 8.67187 17.8906C8.67187 17.8945 8.375 18.3242 8.375 18.3242Z" fill="url(#paint4_radial_0_267)"/>
<path d="M25.0273 37.5898V33.8867L13.8672 33L12.8516 34.2539C12.8516 34.2539 15.2539 37.5898 21.5352 37.5898H25.0273Z" fill="url(#paint5_radial_0_267)"/>
<path d="M12.875 32.6367C14.5469 30.0898 10.8398 29.1367 10.8398 29.1367L10.8359 29.1406C11.4805 29.9453 11.7734 30.6484 11.3945 31.3398C10.9219 32.2031 9.51562 32.332 9.51562 32.332C9.51562 32.332 11.4297 34.0391 12.875 32.6367Z" fill="url(#paint6_radial_0_267)"/>
<path d="M21.4531 35.1875V39.0859C21.4531 40.8477 22.8984 42.2773 24.6797 42.2773H25.3242C27.1055 42.2773 28.5508 40.8477 28.5508 39.0859V35.1875H21.4531Z" fill="#E59600"/>
<path d="M35.5938 19.6992H14.2461C11.9453 19.6992 10.0625 21.707 10.0625 24.1562C10.0625 26.6055 11.9453 28.6133 14.2461 28.6133H35.5938C37.8945 28.6133 39.7773 26.6055 39.7773 24.1562C39.7773 21.707 37.8945 19.6992 35.5938 19.6992Z" fill="#E59600"/>
<path d="M25 4.32422C18.2031 4.32422 11.9062 11.5938 11.9062 22.0586C11.9062 32.4648 18.3945 37.6094 25 37.6094C31.6055 37.6094 38.0937 32.4609 38.0937 22.0547C38.0937 11.5937 31.7969 4.32422 25 4.32422Z" fill="#FFCA28"/>
<path d="M26.5078 26.5859C26.4648 26.5703 26.4258 26.5586 26.3828 26.5547H23.6172C23.5742 26.5586 23.5313 26.5703 23.4922 26.5859C23.2422 26.6875 23.1055 26.9453 23.2227 27.2227C23.3398 27.5 23.8906 28.2734 25 28.2734C26.1094 28.2734 26.6602 27.4961 26.7773 27.2227C26.8945 26.9453 26.7578 26.6875 26.5078 26.5859Z" fill="#E59600"/>
<path d="M28.2891 29.7422C27.0469 30.4805 22.9648 30.4805 21.7227 29.7422C21.0078 29.3164 20.2773 29.9687 20.5742 30.6172C20.8672 31.2539 23.0898 32.7344 25.0156 32.7344C26.9414 32.7344 29.1367 31.2539 29.4297 30.6172C29.7227 29.9687 29.0039 29.3164 28.2891 29.7422Z" fill="#795548"/>
<path d="M18.5781 24.9648C19.6417 24.9648 20.5039 24.0729 20.5039 22.9727C20.5039 21.8724 19.6417 20.9805 18.5781 20.9805C17.5145 20.9805 16.6523 21.8724 16.6523 22.9727C16.6523 24.0729 17.5145 24.9648 18.5781 24.9648Z" fill="#404040"/>
<path d="M31.4219 24.9648C32.4855 24.9648 33.3477 24.0729 33.3477 22.9727C33.3477 21.8724 32.4855 20.9805 31.4219 20.9805C30.3583 20.9805 29.4961 21.8724 29.4961 22.9727C29.4961 24.0729 30.3583 24.9648 31.4219 24.9648Z" fill="#404040"/>
<path d="M21.4805 19.4609C21.1172 18.9805 20.2812 18.2852 18.6562 18.2852C17.0313 18.2852 16.1914 18.9844 15.832 19.4609C15.6719 19.6719 15.7109 19.918 15.8242 20.0664C15.9258 20.2031 16.2305 20.332 16.5664 20.2187C16.9023 20.1055 17.5586 19.7656 18.6562 19.7578C19.7539 19.7656 20.4102 20.1055 20.7461 20.2187C21.082 20.332 21.3867 20.207 21.4883 20.0664C21.5977 19.918 21.6367 19.6719 21.4805 19.4609Z" fill="#6D4C41"/>
<path d="M34.1719 19.4609C33.8086 18.9805 32.9727 18.2852 31.3477 18.2852C29.7227 18.2852 28.8828 18.9844 28.5234 19.4609C28.3633 19.6719 28.4023 19.918 28.5156 20.0664C28.6172 20.2031 28.9219 20.332 29.2578 20.2187C29.5938 20.1055 30.25 19.7656 31.3477 19.7578C32.4453 19.7656 33.1016 20.1055 33.4375 20.2187C33.7734 20.332 34.0781 20.207 34.1797 20.0664C34.293 19.918 34.332 19.6719 34.1719 19.4609Z" fill="#6D4C41"/>
<path d="M40.668 9.88281C39.7148 8.43359 37.5781 6.49609 35.6602 6.36719C35.3516 4.51562 33.3789 3.33984 31.4687 2.73437C26.3008 1.08984 22.9375 2.53906 21.1289 3.53125C20.7539 3.73828 18.3281 5.08594 16.6328 4.11719C15.5703 3.51172 15.5898 1.86719 15.5898 1.86719C15.5898 1.86719 12.2617 3.14063 13.3984 6.6875C12.2539 6.73438 10.7539 7.21875 9.96094 8.83203C9.01562 10.75 9.35156 12.3555 9.625 13.125C8.64062 13.9648 7.40234 15.75 8.25 18.0664C8.89062 19.8125 11.4414 20.6133 11.4414 20.6133C11.2617 23.75 11.8437 25.6875 12.1523 26.4688C12.207 26.6055 12.3984 26.5938 12.4336 26.4531C12.8203 24.8984 14.1367 19.4766 14.0078 18.5312C14.0078 18.5312 18.4414 17.6484 22.668 14.5273C23.5273 13.8906 24.4609 13.3516 25.4531 12.9531C30.7617 10.832 31.875 14.4492 31.875 14.4492C31.875 14.4492 35.5547 13.7422 36.6641 18.8672C37.082 20.7891 37.3633 23.8633 37.6016 26.0195C37.6172 26.1719 37.8242 26.2031 37.8828 26.0625C38.2539 25.2109 38.9961 23.5117 39.1719 21.7852C39.2344 21.1758 40.8672 20.3711 41.5703 17.7617C42.5117 14.2773 41.3555 10.9297 40.668 9.88281Z" fill="#543930"/>
<path d="M39.1602 21.7969C39.2227 21.1875 40.8555 20.3828 41.5586 17.7734C41.6328 17.4961 41.6953 17.2148 41.7539 16.9297C42.3242 13.7578 41.3008 10.8477 40.6641 9.88281C39.7812 8.54297 37.8906 6.78906 36.0977 6.42969C35.9414 6.41016 35.7891 6.39062 35.6445 6.38281C35.6445 6.38281 35.7734 7.22266 35.4336 7.89844C34.9961 8.76953 34.1016 8.97656 34.1016 8.97656C38.7813 13.668 38.4453 17.5938 39.1602 21.7969Z" fill="url(#paint7_radial_0_267)"/>
<path d="M22.2617 2.9375C21.832 3.14453 21.457 3.35156 21.1289 3.53125C20.7539 3.73828 18.3281 5.08594 16.6328 4.11719C15.5898 3.52344 15.5898 1.92969 15.5898 1.875C15.1094 2.48828 13.6562 6.88672 17.9062 7.17578C19.7383 7.30078 20.8672 5.69922 21.5391 4.33984C21.7773 3.84766 22.1562 3.13281 22.2617 2.9375Z" fill="url(#paint8_radial_0_267)"/>
<path d="M15.5781 1.875C15.5742 1.87891 15.5664 1.87891 15.5547 1.88672C15.5547 1.88672 15.5547 1.88672 15.5508 1.88672C15.1875 2.03906 12.332 3.36719 13.3984 6.69141L16.4375 7.18359C13.75 4.44531 15.5898 1.87109 15.5898 1.87109C15.5898 1.87109 15.582 1.87109 15.5781 1.875Z" fill="url(#paint9_radial_0_267)"/>
<path d="M15.2734 6.99219L13.3945 6.6875C13.3203 6.6875 13.0703 6.71094 12.9336 6.73047C11.875 6.87891 10.6289 7.42578 9.95312 8.83203C9.22656 10.3437 9.24609 11.6445 9.44531 12.5117C9.50391 12.8008 9.62109 13.1289 9.62109 13.1289C9.62109 13.1289 10.5508 12.2461 12.7656 12.1836L15.2734 6.99219Z" fill="url(#paint10_radial_0_267)"/>
<path d="M9.53516 13.2031C8.60937 14.0273 7.36328 15.8672 8.28125 18.1445C8.97266 19.8633 11.4414 20.6094 11.4414 20.6094C11.4414 20.6172 11.9336 20.7656 12.1875 20.7656L12.7656 12.1836C11.582 12.1836 10.4453 12.5391 9.71094 13.0508C9.71875 13.0664 9.53125 13.1914 9.53516 13.2031Z" fill="url(#paint11_radial_0_267)"/>
<path d="M11.4453 6.49219C12.5742 5.24219 14.5664 4.07032 16.7305 3.25C20.082 1.98047 21.2734 1.69922 23.1797 1.6836C24.0508 1.67578 24.4375 1.91407 24.2891 2.39063C24.125 2.91407 23.6914 3.38672 22.5508 3.4375C20.8008 3.58203 19.7773 4.21094 18.1523 5.13282C17.3867 5.4961 16.7891 7.35157 15.9805 7.92578C15.2344 8.45703 13.4102 10.2266 12.8828 13.3828C12.7266 14.3125 8.6289 13.8125 8.57812 11.9609C8.5625 11.4336 9.39453 8.76172 11.4453 6.49219Z" fill="url(#paint12_linear_0_267)"/>
<path d="M14.7734 11.375C14.8867 10.9844 14.8594 10.5078 14.375 10.2383L9.92969 7.89844C9.82422 7.84766 9.71094 7.82422 9.59766 7.82422C9.25781 7.82422 8.92578 8.04297 8.80078 8.34766L2.33203 25.0742C1.89453 26.2578 1.48047 27.4922 1.77735 29.1172C1.77735 29.1172 5.32813 47.1484 5.76563 48.4375H6.37891H7.00781H14.5781L12.5391 39.8984C12.668 40 12.8125 40.0977 12.9766 40.1719L12.7578 38.2969C9.91797 30.4141 9.9375 27.8633 10.207 26.918L14.7734 11.375Z" fill="url(#paint13_linear_0_267)"/>
<path d="M38.5547 6.49219C37.4258 5.24219 35.4336 4.07032 33.2695 3.25C29.9219 1.98047 28.7266 1.69922 26.8203 1.6875C25.9492 1.67969 25.5625 1.91797 25.7109 2.39453C25.875 2.91797 26.3086 3.39063 27.4492 3.44141C29.1992 3.58594 30.2227 4.21485 31.8477 5.13672C32.6133 5.5 33.2109 7.35547 34.0195 7.92969C34.7656 8.46094 36.5898 10.2305 37.1172 13.3867C37.2734 14.3164 41.3711 13.8164 41.4219 11.9648C41.4375 11.4336 40.6055 8.76172 38.5547 6.49219Z" fill="url(#paint14_linear_0_267)"/>
<path d="M47.668 25.0742L41.1992 8.35156C41.0742 8.04687 40.7422 7.82812 40.4023 7.82812C40.2891 7.82812 40.1797 7.85156 40.0703 7.90234L35.625 10.2422C35.1406 10.5117 35.1133 10.9883 35.2266 11.3789L39.7969 26.9219C40.0664 27.8672 40.0859 30.418 37.2461 38.3008L37.0273 40.1758C37.1914 40.0977 37.3359 40.0039 37.4648 39.9023L35.4258 48.4375H42.9961H43.625H44.2383C44.6758 47.1484 48.2266 29.1172 48.2266 29.1172C48.5195 27.4922 48.1055 26.2539 47.668 25.0742Z" fill="url(#paint15_linear_0_267)"/>
<defs>
<linearGradient id="paint0_linear_0_267" x1="25" y1="8.68703" x2="25" y2="48.4786" gradientUnits="userSpaceOnUse">
<stop stop-color="#F78C1F"/>
<stop offset="0.4801" stop-color="#F37F12"/>
<stop offset="1" stop-color="#EF6C00"/>
</linearGradient>
<radialGradient id="paint1_radial_0_267" cx="0" cy="0" r="1" gradientUnits="userSpaceOnUse" gradientTransform="translate(30.7093 32.2412) scale(9.14805 4.50907)">
<stop offset="0.7275" stop-color="#6D4C41" stop-opacity="0"/>
<stop offset="1" stop-color="#6D4C41"/>
</radialGradient>
<radialGradient id="paint2_radial_0_267" cx="0" cy="0" r="1" gradientUnits="userSpaceOnUse" gradientTransform="translate(39.7204 30.8753) rotate(154.846) scale(2.70506 2.01112)">
<stop offset="0.6628" stop-color="#6D4C41"/>
<stop offset="1" stop-color="#6D4C41" stop-opacity="0"/>
</radialGradient>
<radialGradient id="paint3_radial_0_267" cx="0" cy="0" r="1" gradientUnits="userSpaceOnUse" gradientTransform="translate(32.714 23.2006) rotate(-94.2634) scale(11.916 9.89683)">
<stop offset="0.7247" stop-color="#6D4C41" stop-opacity="0"/>
<stop offset="1" stop-color="#6D4C41"/>
</radialGradient>
<radialGradient id="paint4_radial_0_267" cx="0" cy="0" r="1" gradientUnits="userSpaceOnUse" gradientTransform="translate(17.3208 23.2013) rotate(-85.7366) scale(11.916 9.89683)">
<stop offset="0.7247" stop-color="#6D4C41" stop-opacity="0"/>
<stop offset="1" stop-color="#6D4C41"/>
</radialGradient>
<radialGradient id="paint5_radial_0_267" cx="0" cy="0" r="1" gradientUnits="userSpaceOnUse" gradientTransform="translate(19.325 32.2412) rotate(180) scale(9.14805 4.50907)">
<stop offset="0.7275" stop-color="#6D4C41" stop-opacity="0"/>
<stop offset="1" stop-color="#6D4C41"/>
</radialGradient>
<radialGradient id="paint6_radial_0_267" cx="0" cy="0" r="1" gradientUnits="userSpaceOnUse" gradientTransform="translate(10.3149 30.8751) rotate(25.1539) scale(2.70506 2.01112)">
<stop offset="0.6628" stop-color="#6D4C41"/>
<stop offset="1" stop-color="#6D4C41" stop-opacity="0"/>
</radialGradient>
<radialGradient id="paint7_radial_0_267" cx="0" cy="0" r="1" gradientUnits="userSpaceOnUse" gradientTransform="translate(32.0509 16.9158) rotate(72.1431) scale(13.9626 10.3309)">
<stop offset="0.6985" stop-color="#6D4C41" stop-opacity="0"/>
<stop offset="1" stop-color="#6D4C41"/>
</radialGradient>
<radialGradient id="paint8_radial_0_267" cx="0" cy="0" r="1" gradientUnits="userSpaceOnUse" gradientTransform="translate(18.482 1.68642) rotate(28.2833) scale(3.65229 4.33884)">
<stop offset="0.58" stop-color="#6D4C41"/>
<stop offset="1" stop-color="#6D4C41" stop-opacity="0"/>
</radialGradient>
<radialGradient id="paint9_radial_0_267" cx="0" cy="0" r="1" gradientUnits="userSpaceOnUse" gradientTransform="translate(17.0163 5.0278) scale(3.34981 4.11189)">
<stop offset="0.7016" stop-color="#6D4C41" stop-opacity="0"/>
<stop offset="1" stop-color="#6D4C41"/>
</radialGradient>
<radialGradient id="paint10_radial_0_267" cx="0" cy="0" r="1" gradientUnits="userSpaceOnUse" gradientTransform="translate(16.5551 10.9618) rotate(-164.893) scale(6.28428 5.89837)">
<stop offset="0.6605" stop-color="#6D4C41" stop-opacity="0"/>
<stop offset="1" stop-color="#6D4C41"/>
</radialGradient>
<radialGradient id="paint11_radial_0_267" cx="0" cy="0" r="1" gradientUnits="userSpaceOnUse" gradientTransform="translate(15.0661 17.0484) rotate(7.86192) scale(6.5966 9.30004)">
<stop offset="0.5981" stop-color="#6D4C41" stop-opacity="0"/>
<stop offset="1" stop-color="#6D4C41"/>
</radialGradient>
<linearGradient id="paint12_linear_0_267" x1="25.596" y1="7.76289" x2="9.85308" y2="7.76289" gradientUnits="userSpaceOnUse">
<stop offset="0.5999" stop-color="#FFCA28"/>
<stop offset="1" stop-color="#FFB300"/>
</linearGradient>
<linearGradient id="paint13_linear_0_267" x1="8.25258" y1="8.68703" x2="8.25258" y2="48.4786" gradientUnits="userSpaceOnUse">
<stop stop-color="#F78C1F"/>
<stop offset="0.4801" stop-color="#F37F12"/>
<stop offset="1" stop-color="#EF6C00"/>
</linearGradient>
<linearGradient id="paint14_linear_0_267" x1="25.6791" y1="7.76289" x2="41.4221" y2="7.76289" gradientUnits="userSpaceOnUse">
<stop offset="0.5999" stop-color="#FFCA28"/>
<stop offset="1" stop-color="#FFB300"/>
</linearGradient>
<linearGradient id="paint15_linear_0_267" x1="41.7476" y1="8.68703" x2="41.7476" y2="48.4786" gradientUnits="userSpaceOnUse">
<stop stop-color="#F78C1F"/>
<stop offset="0.4801" stop-color="#F37F12"/>
<stop offset="1" stop-color="#EF6C00"/>
</linearGradient>
</defs>
</svg>
