<svg width="50" height="50" viewBox="0 0 50 50" fill="none" xmlns="http://www.w3.org/2000/svg">
<path d="M32.4805 31.1914C31.9922 30.3047 32.6133 29.4023 33.6758 28.2852C35.3594 26.5117 37.1914 22.3984 35.4883 18.2227C35.5 18.1992 35.1523 17.4961 35.1641 17.4727L34.4648 17.4375C34.2422 17.4062 26.5508 17.3906 18.8516 17.3906C11.1523 17.3906 3.46093 17.4062 3.23828 17.4375C3.23828 17.4375 2.20312 18.1992 2.21093 18.2227C0.507807 22.3984 2.33984 26.5078 4.02343 28.2812C5.08203 29.3984 5.70312 30.3008 5.21874 31.1875C4.74609 32.0508 3.33984 32.1758 3.33984 32.1758C3.33984 32.1758 3.66406 33.0586 4.44531 33.5352C5.16796 33.9766 6.05859 34.0781 6.67187 34.0938C6.67187 34.0938 9.07421 37.418 15.3555 37.418H18.8516H22.3477C28.6289 37.418 31.0312 34.0938 31.0312 34.0938C31.6445 34.0781 32.5352 33.9766 33.2578 33.5352C34.0391 33.0586 34.3633 32.1758 34.3633 32.1758C34.3633 32.1758 32.9531 32.0547 32.4805 31.1914Z" fill="#543930"/>
<path d="M18.8438 37.418V33.7305L30.0039 32.8477L31.0195 34.0977C31.0195 34.0977 28.6172 37.4219 22.3359 37.4219L18.8438 37.418Z" fill="url(#paint0_radial_0_337)"/>
<path d="M30.9961 32.4844C29.3242 29.9453 33.0312 28.9961 33.0312 28.9961L33.0352 29C32.3906 29.8008 32.0977 30.5 32.4766 31.1914C32.9492 32.0547 34.3555 32.1797 34.3555 32.1797C34.3555 32.1797 32.4414 33.8828 30.9961 32.4844Z" fill="url(#paint1_radial_0_337)"/>
<path d="M35.4961 18.2227C37.1563 22.2656 35.4102 26.4297 33.7734 28.1875C33.5508 28.4297 32.5977 29.3633 32.3789 30.1094C32.3789 30.1094 28.6523 24.9102 27.5391 21.8555C27.3164 21.2383 27.1094 20.6055 27.082 19.9492C27.0625 19.457 27.1367 18.8711 27.4219 18.4531C27.7695 17.9414 35.2969 17.7891 35.2969 17.7891C35.2969 17.793 35.4961 18.2227 35.4961 18.2227Z" fill="url(#paint2_radial_0_337)"/>
<path d="M2.21094 18.2227C0.550779 22.2656 2.29687 26.4297 3.93359 28.1836C4.15625 28.4258 5.10937 29.3594 5.32812 30.1055C5.32812 30.1055 9.05469 24.9062 10.168 21.8516C10.3945 21.2344 10.5977 20.6016 10.625 19.9453C10.6445 19.4531 10.5703 18.8672 10.2852 18.4492C9.9375 17.9375 9.53125 18.0742 8.9414 18.0742C7.8164 18.0742 2.89062 17.7852 2.50781 17.7852C2.51172 17.793 2.21094 18.2227 2.21094 18.2227Z" fill="url(#paint3_radial_0_337)"/>
<path d="M18.8633 37.418V33.7305L7.70312 32.8477L6.6875 34.0977C6.6875 34.0977 9.08984 37.4219 15.3711 37.4219L18.8633 37.418Z" fill="url(#paint4_radial_0_337)"/>
<path d="M6.71094 32.4844C8.38281 29.9453 4.67578 28.9961 4.67578 28.9961L4.67188 29C5.31641 29.8008 5.60938 30.5 5.23047 31.1914C4.75781 32.0547 3.35156 32.1797 3.35156 32.1797C3.35156 32.1797 5.26563 33.8828 6.71094 32.4844Z" fill="url(#paint5_radial_0_337)"/>
<path d="M37.5977 48.4375V47.3125C37.5977 40.7969 28.3945 37.4883 18.9922 37.5C11.8438 37.5078 4.58594 39.2109 1.5625 43.0938V48.4375H37.5977Z" fill="url(#paint6_linear_0_337)"/>
<path d="M15.207 34.7461V38.6445C15.207 40.4063 16.6523 41.8359 18.4336 41.8359H19.0781C20.8594 41.8359 22.3047 40.4063 22.3047 38.6445V34.7461H15.207Z" fill="#E59600"/>
<path d="M29.5234 19.6992H8.17578C5.875 19.6992 3.99219 21.707 3.99219 24.1562C3.99219 26.6055 5.875 28.6133 8.17578 28.6133H29.5234C31.8242 28.6133 33.707 26.6055 33.707 24.1562C33.707 21.707 31.8242 19.6992 29.5234 19.6992Z" fill="#E59600"/>
<path d="M18.8477 4.32422C12.0508 4.32422 5.75391 11.5938 5.75391 22.0586C5.75391 32.4648 12.2422 37.6094 18.8477 37.6094C25.4531 37.6094 31.9414 32.4609 31.9414 22.0547C31.9414 11.5937 25.6484 4.32422 18.8477 4.32422Z" fill="#FFCA28"/>
<path d="M12.4297 24.9648C13.4933 24.9648 14.3555 24.0729 14.3555 22.9727C14.3555 21.8724 13.4933 20.9805 12.4297 20.9805C11.3661 20.9805 10.5039 21.8724 10.5039 22.9727C10.5039 24.0729 11.3661 24.9648 12.4297 24.9648Z" fill="#404040"/>
<path d="M25.2695 24.9648C26.3331 24.9648 27.1953 24.0729 27.1953 22.9727C27.1953 21.8724 26.3331 20.9805 25.2695 20.9805C24.206 20.9805 23.3438 21.8724 23.3438 22.9727C23.3438 24.0729 24.206 24.9648 25.2695 24.9648Z" fill="#404040"/>
<path d="M15.3281 19.4609C14.9648 18.9805 14.1289 18.2852 12.5039 18.2852C10.8789 18.2852 10.0391 18.9844 9.67968 19.4609C9.51953 19.6719 9.55859 19.918 9.67187 20.0664C9.77343 20.2031 10.0781 20.332 10.4141 20.2187C10.75 20.1055 11.4062 19.7656 12.5039 19.7578C13.6016 19.7656 14.2578 20.1055 14.5937 20.2187C14.9297 20.332 15.2344 20.207 15.3359 20.0664C15.4453 19.918 15.4883 19.6719 15.3281 19.4609Z" fill="#6D4C41"/>
<path d="M28.0195 19.4609C27.6562 18.9805 26.8203 18.2852 25.1953 18.2852C23.5703 18.2852 22.7305 18.9844 22.3711 19.4609C22.2109 19.6719 22.25 19.918 22.3633 20.0664C22.4648 20.2031 22.7695 20.332 23.1055 20.2187C23.4414 20.1055 24.0977 19.7656 25.1953 19.7578C26.293 19.7656 26.9492 20.1055 27.2852 20.2187C27.6211 20.332 27.9258 20.207 28.0273 20.0664C28.1406 19.918 28.1797 19.6719 28.0195 19.4609Z" fill="#6D4C41"/>
<path d="M22.1367 29.7422C20.8906 30.4805 16.8125 30.4805 15.5703 29.7422C14.8555 29.3164 14.125 29.9687 14.4219 30.6172C14.7148 31.2539 16.9375 32.7344 18.8633 32.7344C20.7891 32.7344 22.9844 31.2539 23.2773 30.6172C23.5742 29.9687 22.8516 29.3164 22.1367 29.7422Z" fill="#795548"/>
<path d="M20.3555 26.5859C20.3125 26.5703 20.2734 26.5586 20.2305 26.5547H17.4648C17.4219 26.5586 17.3789 26.5703 17.3398 26.5859C17.0898 26.6875 16.9531 26.9453 17.0703 27.2227C17.1875 27.5 17.7383 28.2734 18.8477 28.2734C19.957 28.2734 20.5078 27.4961 20.625 27.2227C20.7461 26.9453 20.6055 26.6875 20.3555 26.5859Z" fill="#E59600"/>
<g opacity="0.28">
<path d="M31.8516 40.1055C31.2187 39.5508 29.0273 38.918 29.0273 38.918L26.8867 48.4375H30.5977L31.8516 40.1055Z" fill="url(#paint7_linear_0_337)"/>
</g>
<path d="M35.6719 28.9687C36.6875 29.0469 38.1289 29.3398 38.8516 29.2187C39.4922 29.1133 39.6328 28.5078 40.3008 28.3555C41.7148 28.0351 47.4336 26.7461 48.0273 26.6015C48.8633 26.3945 49.1563 24.832 47.375 24.539C45.6094 24.2461 41.9531 25 41.9531 25C41.9531 25 42.1484 24.4414 42.0117 24.0703C41.668 23.1758 40.5 23.4765 39.8047 23.6406L35.6797 24.8086C33.5547 25.539 33.6563 28.8672 35.6719 28.9687Z" fill="url(#paint8_linear_0_337)"/>
<path d="M40.0781 28.7852C40.0664 28.4336 39.793 28.1485 39.4414 28.125L34.4727 27.8281C34.1094 27.8008 33.7891 28.0664 33.7461 28.4297L29.5234 48.4375H40.8242L40.0781 28.7852Z" fill="url(#paint9_linear_0_337)"/>
<path d="M34.5039 9.8086C33.5508 8.36719 31.4141 6.43359 29.4961 6.30469C29.1875 4.46094 27.2148 2.89844 25.3047 2.29297C20.1367 0.656251 16.7734 2.49219 14.9648 3.47656C14.5898 3.67969 12.1641 5.02734 10.4688 4.0625C9.40625 3.45703 9.42578 1.82031 9.42578 1.82031C9.42578 1.82031 6.09766 3.08984 7.23438 6.625C6.08985 6.67188 4.58985 7.15625 3.79688 8.76172C2.85157 10.6758 3.1875 12.2734 3.46094 13.0391C2.47657 13.875 1.23828 15.6523 2.08594 17.9609C2.72657 19.6992 5.27735 20.5 5.27735 20.5C5.09766 23.6289 5.67969 25.5547 5.98828 26.332C6.04297 26.4688 6.23438 26.457 6.26953 26.3164C6.65625 24.7656 7.97266 19.3633 7.84375 18.4219C7.84375 18.4219 12.2734 17.543 16.5039 14.4297C17.3633 13.7969 18.2969 13.2578 19.2891 12.8633C24.5977 10.75 25.707 14.3555 25.707 14.3555C25.707 14.3555 29.3867 13.6484 30.4961 18.7578C30.9141 20.6719 31.1953 23.7383 31.4336 25.8828C31.4492 26.0352 31.6562 26.0664 31.7148 25.9258C32.0859 25.0742 32.8281 23.3867 33.0039 21.6641C33.0664 21.0586 34.6992 20.2578 35.4023 17.6562C36.3477 14.1875 35.1914 10.8516 34.5039 9.8086Z" fill="#543930"/>
<path d="M32.9961 21.6797C33.0586 21.0742 34.6914 20.2734 35.3945 17.6719C35.4688 17.3945 35.5313 17.1133 35.5899 16.832C36.1602 13.6719 35.1367 10.7695 34.5 9.80859C33.6172 8.47656 31.7266 6.72656 29.9336 6.36719C29.7774 6.34766 29.625 6.32812 29.4805 6.32031C29.4805 6.32031 29.6094 7.16016 29.2695 7.82813C28.832 8.69531 27.9375 8.90234 27.9375 8.90234C32.6172 13.582 32.2813 17.4961 32.9961 21.6797Z" fill="url(#paint10_radial_0_337)"/>
<path d="M16.0977 2.88672C15.668 3.09375 15.293 3.30078 14.9649 3.47656C14.5899 3.67969 12.1641 5.02734 10.4688 4.0625C9.42579 3.46875 9.42579 1.88281 9.42579 1.82812C8.94532 2.44141 7.4922 6.82031 11.7422 7.11328C13.5742 7.23828 14.7031 5.64062 15.375 4.28906C15.6133 3.79687 15.9922 3.07812 16.0977 2.88672Z" fill="url(#paint11_radial_0_337)"/>
<path d="M24.7695 2.13672C27.6289 2.91016 29.0234 4.36719 29.4883 6.3086C29.625 6.87891 29.7891 12.1992 19.6328 6.15235C15.8555 3.90235 16.8867 2.4961 17.3281 2.33594C19.0547 1.71094 21.5664 1.26953 24.7695 2.13672Z" fill="url(#paint12_radial_0_337)"/>
<path d="M9.41407 1.82812C9.41017 1.83203 9.40235 1.83203 9.39063 1.83984C9.02735 1.99219 6.17188 3.31641 7.23829 6.625L10.2774 7.11328C7.58595 4.38672 9.4297 1.82031 9.4297 1.82031C9.4297 1.82031 9.41798 1.82422 9.41407 1.82812Z" fill="url(#paint13_radial_0_337)"/>
<path d="M9.11328 6.92578L7.23438 6.625C7.16016 6.625 6.91016 6.64844 6.77344 6.66797C5.71485 6.81641 4.46875 7.36328 3.79297 8.76172C3.06641 10.2695 3.08594 11.5625 3.28516 12.4258C3.34375 12.7148 3.46094 13.043 3.46094 13.043C3.46094 13.043 4.39063 12.1602 6.60547 12.1016L9.11328 6.92578Z" fill="url(#paint14_radial_0_337)"/>
<path d="M3.3711 13.1172C2.44532 13.9375 1.19923 15.7695 2.11719 18.043C2.81251 19.7578 5.27735 20.5 5.27735 20.5C5.27735 20.5078 5.76954 20.6563 6.02344 20.6563L6.60157 12.1016C5.41798 12.1016 4.28126 12.457 3.54688 12.9688C3.55469 12.9805 3.36329 13.1055 3.3711 13.1172Z" fill="url(#paint15_radial_0_337)"/>
<defs>
<radialGradient id="paint0_radial_0_337" cx="0" cy="0" r="1" gradientUnits="userSpaceOnUse" gradientTransform="translate(24.5455 32.0898) scale(9.14805 4.49352)">
<stop offset="0.7275" stop-color="#6D4C41" stop-opacity="0"/>
<stop offset="1" stop-color="#6D4C41"/>
</radialGradient>
<radialGradient id="paint1_radial_0_337" cx="0" cy="0" r="1" gradientUnits="userSpaceOnUse" gradientTransform="translate(33.5569 30.7285) rotate(154.924) scale(2.70334 2.00549)">
<stop offset="0.6628" stop-color="#6D4C41"/>
<stop offset="1" stop-color="#6D4C41" stop-opacity="0"/>
</radialGradient>
<radialGradient id="paint2_radial_0_337" cx="0" cy="0" r="1" gradientUnits="userSpaceOnUse" gradientTransform="translate(26.5503 23.0826) rotate(-94.2783) scale(11.8745 9.89665)">
<stop offset="0.7247" stop-color="#6D4C41" stop-opacity="0"/>
<stop offset="1" stop-color="#6D4C41"/>
</radialGradient>
<radialGradient id="paint3_radial_0_337" cx="0" cy="0" r="1" gradientUnits="userSpaceOnUse" gradientTransform="translate(11.1572 23.0822) rotate(-85.7217) scale(11.8745 9.89665)">
<stop offset="0.7247" stop-color="#6D4C41" stop-opacity="0"/>
<stop offset="1" stop-color="#6D4C41"/>
</radialGradient>
<radialGradient id="paint4_radial_0_337" cx="0" cy="0" r="1" gradientUnits="userSpaceOnUse" gradientTransform="translate(13.1613 32.0898) rotate(180) scale(9.14805 4.49352)">
<stop offset="0.7275" stop-color="#6D4C41" stop-opacity="0"/>
<stop offset="1" stop-color="#6D4C41"/>
</radialGradient>
<radialGradient id="paint5_radial_0_337" cx="0" cy="0" r="1" gradientUnits="userSpaceOnUse" gradientTransform="translate(4.15136 30.7291) rotate(25.0761) scale(2.70334 2.00549)">
<stop offset="0.6628" stop-color="#6D4C41"/>
<stop offset="1" stop-color="#6D4C41" stop-opacity="0"/>
</radialGradient>
<linearGradient id="paint6_linear_0_337" x1="19.5809" y1="37.5" x2="19.5809" y2="48.4375" gradientUnits="userSpaceOnUse">
<stop stop-color="#F78C1F"/>
<stop offset="0.4801" stop-color="#F37F12"/>
<stop offset="1" stop-color="#EF6C00"/>
</linearGradient>
<linearGradient id="paint7_linear_0_337" x1="30.9825" y1="44.3225" x2="27.9718" y2="43.6809" gradientUnits="userSpaceOnUse">
<stop offset="0.2651" stop-color="#262626"/>
<stop offset="1" stop-color="#262626" stop-opacity="0"/>
</linearGradient>
<linearGradient id="paint8_linear_0_337" x1="42.2518" y1="24.9474" x2="39.1268" y2="29.342" gradientUnits="userSpaceOnUse">
<stop offset="0.5" stop-color="#FFCA28"/>
<stop offset="1" stop-color="#FFB300"/>
</linearGradient>
<linearGradient id="paint9_linear_0_337" x1="35.1748" y1="28.1654" x2="35.1748" y2="45.8371" gradientUnits="userSpaceOnUse">
<stop stop-color="#F78C1F"/>
<stop offset="0.4801" stop-color="#F37F12"/>
<stop offset="1" stop-color="#EF6C00"/>
</linearGradient>
<radialGradient id="paint10_radial_0_337" cx="0" cy="0" r="1" gradientUnits="userSpaceOnUse" gradientTransform="translate(25.8871 16.8171) rotate(72.0851) scale(13.9189 10.3275)">
<stop offset="0.6985" stop-color="#6D4C41" stop-opacity="0"/>
<stop offset="1" stop-color="#6D4C41"/>
</radialGradient>
<radialGradient id="paint11_radial_0_337" cx="0" cy="0" r="1" gradientUnits="userSpaceOnUse" gradientTransform="translate(12.318 1.64113) rotate(28.2026) scale(3.64953 4.32727)">
<stop offset="0.58" stop-color="#6D4C41"/>
<stop offset="1" stop-color="#6D4C41" stop-opacity="0"/>
</radialGradient>
<radialGradient id="paint12_radial_0_337" cx="0" cy="0" r="1" gradientUnits="userSpaceOnUse" gradientTransform="translate(20.4745 8.26885) rotate(-157.19) scale(11.4139 6.41468)">
<stop offset="0.6985" stop-color="#6D4C41" stop-opacity="0"/>
<stop offset="1" stop-color="#6D4C41"/>
</radialGradient>
<radialGradient id="paint13_radial_0_337" cx="0" cy="0" r="1" gradientUnits="userSpaceOnUse" gradientTransform="translate(10.8525 4.97055) scale(3.3498 4.09782)">
<stop offset="0.7016" stop-color="#6D4C41" stop-opacity="0"/>
<stop offset="1" stop-color="#6D4C41"/>
</radialGradient>
<radialGradient id="paint14_radial_0_337" cx="0" cy="0" r="1" gradientUnits="userSpaceOnUse" gradientTransform="translate(10.3916 10.8833) rotate(-164.942) scale(6.28281 5.87957)">
<stop offset="0.6605" stop-color="#6D4C41" stop-opacity="0"/>
<stop offset="1" stop-color="#6D4C41"/>
</radialGradient>
<radialGradient id="paint15_radial_0_337" cx="0" cy="0" r="1" gradientUnits="userSpaceOnUse" gradientTransform="translate(8.90209 16.9494) rotate(7.83355) scale(6.59615 9.26868)">
<stop offset="0.5981" stop-color="#6D4C41" stop-opacity="0"/>
<stop offset="1" stop-color="#6D4C41"/>
</radialGradient>
</defs>
</svg>
