<svg width="44" height="49" viewBox="0 0 44 49" fill="none" xmlns="http://www.w3.org/2000/svg">
<path d="M3.77849 26.5642C3.57849 23.7402 0.982494 15.0562 0.646494 13.7122C0.238494 12.0722 0.214494 10.5122 1.53849 9.98821C2.95449 9.42821 4.16249 9.85621 5.00249 12.1482C5.00249 12.1482 8.13049 19.7442 9.04649 21.9682C9.19049 22.3162 9.54249 22.7522 10.1705 22.5842C10.7025 22.4402 10.7985 21.8962 10.7305 21.4962C10.2545 18.7442 8.65849 9.23221 8.52249 7.62821C8.29849 4.94821 8.97049 4.02421 10.2905 3.83621C11.8545 3.61221 12.8625 4.50021 13.2705 6.62421L16.3705 21.1082C16.4505 21.4842 16.7945 21.7402 17.1785 21.7122C17.2265 21.7082 17.2785 21.7042 17.3265 21.7002C17.7185 21.6682 18.0225 21.3482 18.0305 20.9522C18.0905 17.8922 18.3465 5.70021 18.5785 3.59221C18.8465 1.15621 19.8065 0.416214 21.0705 0.416214C22.5745 0.416214 23.4465 1.10021 23.7145 3.67621C23.9785 6.22021 23.9905 18.0802 23.9545 21.1482C23.9505 21.5482 24.2545 21.8842 24.6545 21.9202C24.6625 21.9202 24.6665 21.9202 24.6745 21.9202C25.0545 21.9522 25.5305 21.7122 25.6145 21.3402C26.2265 18.7002 28.0145 8.56021 28.6265 6.46821C29.3345 4.04821 30.5345 3.78021 31.8865 4.06821C33.2665 4.36021 33.6185 5.90821 33.2825 7.92021C33.0905 9.06821 31.7385 20.2242 31.6105 23.2482C31.4945 26.0242 32.1305 29.8402 32.1305 29.8402C35.0745 24.6082 41.1865 22.0682 43.3425 25.1482C43.6465 25.5802 43.7545 26.8402 42.4145 28.1762C41.4265 29.1602 39.7745 30.5842 37.8985 33.3482C33.5025 39.8162 32.0545 48.4002 19.4745 48.4002C12.4705 48.4002 8.35449 45.4442 6.2825 40.7962C3.77849 35.1642 3.97849 29.3882 3.77849 26.5642Z" fill="#FFCA28"/>
<path d="M41.3585 27.7602C40.2025 28.7202 38.3665 30.0882 36.4705 32.8762C35.5185 34.2722 34.8185 35.3242 34.0305 36.7562C31.0705 42.1482 29.6225 45.6882 21.2465 47.5842C19.8585 47.9002 18.3185 48.3722 18.3185 48.3722C18.6945 48.3922 19.0785 48.4042 19.4745 48.4042C32.0545 48.4042 33.4985 39.8202 37.9025 33.3482C39.7825 30.5882 41.4345 29.1602 42.4185 28.1762C43.3105 27.2842 43.5585 26.4322 43.5345 25.8322C43.1265 26.7002 42.5145 26.8002 41.3585 27.7602Z" fill="#EDA600"/>
<path d="M19.6265 36.9162C22.2345 29.3202 28.2105 29.8962 31.3945 28.8362L32.1785 29.8402C31.4905 30.8282 30.0905 30.8402 28.3785 31.3682C22.2345 33.2682 21.0745 37.0842 20.1865 39.1122C19.9945 39.5482 19.8465 40.4522 19.7025 40.9362C19.6025 41.2682 18.8465 41.7562 18.8465 40.8602C18.8425 40.0042 19.0985 38.4522 19.6265 36.9162Z" fill="#EDA600"/>
<path d="M32.3744 6.35621C32.3104 6.94421 30.7184 21.3962 30.6624 23.3522C30.5984 25.5362 30.8824 29.3922 30.9064 29.5842C30.9064 29.5842 31.2024 30.4562 31.6224 30.3282C32.3904 30.0962 32.8144 28.7922 32.8144 28.7922C32.8144 28.7922 32.2624 28.6642 32.1864 28.1242C32.1304 27.7162 32.0304 26.9962 32.0304 23.2602C32.0304 19.5242 33.4264 8.80821 33.5424 7.43621C33.7104 5.44421 33.2304 4.36821 31.8864 4.09221C31.8904 4.08821 32.5424 4.80421 32.3744 6.35621Z" fill="#EDA600"/>
<path d="M3.49847 10.9082C3.86247 11.7882 7.41847 20.6402 8.01047 21.9282C8.65447 23.3322 10.1105 22.6002 10.1105 22.6002C10.1105 22.6002 9.79847 22.7802 9.45047 21.9682C8.50247 19.7562 4.67447 10.9402 4.67447 10.9402C4.05047 9.23222 2.25447 9.72022 1.89447 9.86022C1.89447 9.85622 3.13847 10.0282 3.49847 10.9082Z" fill="#EDA600"/>
<path d="M22.4785 2.11221C22.6025 3.08421 22.9905 17.0962 22.9025 20.4762C22.8505 22.4882 24.9305 21.9082 24.9305 21.9082C24.9305 21.9082 24.3785 21.7722 24.3265 21.0242C24.1265 17.9602 24.3465 5.57622 24.0225 3.04022C23.7545 0.940215 22.6025 0.284215 21.1105 0.416215C21.1145 0.416215 22.2945 0.688215 22.4785 2.11221Z" fill="#EDA600"/>
<path d="M11.9065 5.02822C12.2585 6.24422 15.1185 20.6842 15.1185 20.6842C15.4665 22.1802 17.1665 21.7122 17.1665 21.7122C17.1665 21.7122 16.8625 21.6042 16.6265 20.7802C16.4825 20.2762 13.5945 6.42422 13.5945 6.42422C13.2265 4.51222 12.4785 3.88422 11.2745 3.78422C10.7985 3.74422 10.3865 3.81622 10.3865 3.81622C10.3865 3.81622 11.6145 4.00822 11.9065 5.02822Z" fill="#EDA600"/>
</svg>
