<svg width="50" height="50" viewBox="0 0 50 50" fill="none" xmlns="http://www.w3.org/2000/svg">
<path d="M38.6328 31.1914C38.1445 30.3047 38.7656 29.4023 39.8281 28.2852C41.5117 26.5117 43.3438 22.3984 41.6406 18.2227C41.6523 18.1992 41.3047 17.4961 41.3164 17.4727L40.6172 17.4375C40.3945 17.4062 32.7031 17.3906 25.0039 17.3906C17.3047 17.3906 9.61328 17.4062 9.39062 17.4375C9.39062 17.4375 8.35547 18.1992 8.36328 18.2227C6.66406 22.3984 8.49219 26.5078 10.1758 28.2852C11.2344 29.4023 11.8555 30.3047 11.3711 31.1914C10.8984 32.0547 9.49219 32.1797 9.49219 32.1797C9.49219 32.1797 9.81641 33.0625 10.5977 33.5391C11.3203 33.9805 12.2109 34.082 12.8242 34.0977C12.8242 34.0977 15.2266 37.4219 21.5078 37.4219H25.0039H28.5C34.7812 37.4219 37.1836 34.0977 37.1836 34.0977C37.7969 34.082 38.6875 33.9805 39.4102 33.5391C40.1914 33.0625 40.5156 32.1797 40.5156 32.1797C40.5156 32.1797 39.1055 32.0547 38.6328 31.1914Z" fill="#543930"/>
<path d="M24.9961 37.418V33.7305L36.1562 32.8477L37.1719 34.0977C37.1719 34.0977 34.7695 37.4219 28.4883 37.4219L24.9961 37.418Z" fill="url(#paint0_radial_0_303)"/>
<path d="M37.1484 32.4844C35.4766 29.9453 39.1836 28.9961 39.1836 28.9961L39.1875 29C38.543 29.8008 38.25 30.5 38.6289 31.1914C39.1016 32.0547 40.5078 32.1797 40.5078 32.1797C40.5078 32.1797 38.5898 33.8828 37.1484 32.4844Z" fill="url(#paint1_radial_0_303)"/>
<path d="M41.6484 18.2227C43.3086 22.2656 41.5625 26.4297 39.9258 28.1875C39.7031 28.4297 38.75 29.3633 38.5312 30.1094C38.5312 30.1094 34.8047 24.9102 33.6914 21.8555C33.4688 21.2383 33.2617 20.6055 33.2344 19.9492C33.2148 19.457 33.2891 18.8711 33.5742 18.4531C33.9219 17.9414 41.4492 17.7891 41.4492 17.7891C41.4492 17.793 41.6484 18.2227 41.6484 18.2227Z" fill="url(#paint2_radial_0_303)"/>
<path d="M8.35938 18.2227C6.70313 22.2656 8.44922 26.4297 10.082 28.1836C10.3086 28.4258 11.2578 29.3594 11.4766 30.1055C11.4766 30.1055 15.2031 24.9062 16.3164 21.8516C16.543 21.2344 16.7461 20.6016 16.7734 19.9453C16.793 19.4531 16.7188 18.8672 16.4336 18.4492C16.0859 17.9375 15.6797 18.0742 15.0898 18.0742C13.9648 18.0742 9.03906 17.7852 8.65625 17.7852C8.66016 17.793 8.35938 18.2227 8.35938 18.2227Z" fill="url(#paint3_radial_0_303)"/>
<path d="M25.0117 37.418V33.7305L13.8516 32.8477L12.8359 34.0977C12.8359 34.0977 15.2383 37.4219 21.5195 37.4219L25.0117 37.418Z" fill="url(#paint4_radial_0_303)"/>
<path d="M12.8594 32.4844C14.5312 29.9453 10.8242 28.9961 10.8242 28.9961L10.8203 29C11.4648 29.8008 11.7578 30.5 11.3789 31.1914C10.9062 32.0547 9.5 32.1797 9.5 32.1797C9.5 32.1797 11.418 33.8828 12.8594 32.4844Z" fill="url(#paint5_radial_0_303)"/>
<path d="M25.0508 37.5C25.0352 37.5 25.0156 37.5 25 37.5C15.043 37.5117 4.6875 40.3437 4.6875 47.2891V48.4375H45.3125V47.2891C45.3125 40.7422 35.0547 37.5 25.0508 37.5Z" fill="url(#paint6_radial_0_303)"/>
<path d="M21.4531 35.1875V39.0859C21.4531 40.8477 22.8984 42.2773 24.6797 42.2773H25.3242C27.1055 42.2773 28.5508 40.8477 28.5508 39.0859V35.1875H21.4531Z" fill="#E59600"/>
<path d="M35.6758 19.6992H14.3242C12.0234 19.6992 10.1406 21.707 10.1406 24.1562C10.1406 26.6055 12.0234 28.6133 14.3242 28.6133H35.6719C37.9727 28.6133 39.8555 26.6055 39.8555 24.1562C39.8555 21.707 37.9766 19.6992 35.6758 19.6992Z" fill="#E59600"/>
<path d="M25.0078 4.32422C18.2109 4.32031 11.9102 11.5898 11.9063 22.0508C11.9023 32.457 18.3867 37.6055 24.9922 37.6094C31.5977 37.6133 38.0898 32.4727 38.0938 22.0664C38.0977 11.5977 31.8047 4.32422 25.0078 4.32422Z" fill="#FFCA28"/>
<path d="M21.4805 20.2422C21.1172 19.7617 20.2812 19.0664 18.6562 19.0664C17.0313 19.0664 16.1914 19.7656 15.832 20.2422C15.6719 20.4531 15.7109 20.6992 15.8242 20.8477C15.9258 20.9844 16.2305 21.1133 16.5664 21C16.9023 20.8867 17.5586 20.5469 18.6562 20.5391C19.7539 20.5469 20.4102 20.8867 20.7461 21C21.082 21.1133 21.3867 20.9883 21.4883 20.8477C21.5977 20.6992 21.6367 20.4531 21.4805 20.2422Z" fill="#6D4C41"/>
<path d="M34.1719 20.2422C33.8086 19.7617 32.9727 19.0664 31.3477 19.0664C29.7227 19.0664 28.8828 19.7656 28.5234 20.2422C28.3633 20.4531 28.4023 20.6992 28.5156 20.8477C28.6172 20.9844 28.9219 21.1133 29.2578 21C29.5938 20.8867 30.25 20.5469 31.3477 20.5391C32.4453 20.5469 33.1016 20.8867 33.4375 21C33.7734 21.1133 34.0781 20.9883 34.1797 20.8477C34.293 20.6992 34.332 20.4531 34.1719 20.2422Z" fill="#6D4C41"/>
<path d="M26.4883 26.5859C26.4453 26.5703 26.4063 26.5586 26.3633 26.5547H23.6328C23.5898 26.5586 23.5508 26.5703 23.5078 26.5859C23.2617 26.6875 23.125 26.9414 23.2422 27.2148C23.3594 27.4883 23.9023 28.2539 24.9961 28.2539C26.0898 28.2539 26.6367 27.4883 26.75 27.2148C26.8711 26.9414 26.7383 26.6836 26.4883 26.5859Z" fill="#E59600"/>
<path d="M18.6289 23.5547C17.8242 23.5547 17.1055 23.3594 16.6055 23.0508C16.3906 22.918 16.2656 22.9961 16.3047 23.2461C16.4492 24.2148 17.4375 24.9648 18.6289 24.9648C19.8242 24.9648 20.8086 24.2148 20.9531 23.2461C20.9922 22.9961 20.8672 22.918 20.6523 23.0508C20.1523 23.3594 19.4336 23.5547 18.6289 23.5547Z" fill="#404040"/>
<path d="M31.3711 23.5547C30.5664 23.5547 29.8477 23.3594 29.3477 23.0508C29.1328 22.918 29.0078 22.9961 29.0469 23.2461C29.1953 24.2148 30.1797 24.9648 31.3711 24.9648C32.5625 24.9648 33.5508 24.2148 33.6953 23.2461C33.7344 22.9961 33.6094 22.918 33.3945 23.0508C32.8945 23.3594 32.1719 23.5547 31.3711 23.5547Z" fill="#404040"/>
<path d="M28.8867 31.9375C28.8867 32.332 27.1445 32.4141 25 32.4141C22.8555 32.4141 21.1133 32.3242 21.1133 31.9375C21.1133 31.5313 22.8555 31.2812 25 31.2812C27.1445 31.2812 28.8867 31.5234 28.8867 31.9375Z" fill="#795548"/>
<path d="M40.6523 9.8086C39.6992 8.36719 37.5625 6.43359 35.6445 6.30469C35.3359 4.46094 33.3633 2.89844 31.4531 2.29297C26.2852 0.656251 22.9219 2.49219 21.1172 3.47656C20.7422 3.67969 18.3164 5.02734 16.6211 4.0625C15.5586 3.45703 15.5781 1.82031 15.5781 1.82031C15.5781 1.82031 12.25 3.08984 13.3867 6.625C12.2422 6.67188 10.7422 7.15625 9.94922 8.76172C9.00391 10.6758 9.33984 12.2734 9.61328 13.0391C8.62891 13.875 7.39062 15.6523 8.23828 17.9609C8.87891 19.6992 11.4297 20.5 11.4297 20.5C11.25 23.6289 11.832 25.5547 12.1406 26.332C12.1953 26.4688 12.3867 26.457 12.4219 26.3164C12.8086 24.7656 14.1289 19.3633 13.9961 18.4219C13.9961 18.4219 18.4297 17.543 22.6562 14.4297C23.5156 13.7969 24.4492 13.2578 25.4414 12.8633C30.75 10.75 31.8594 14.3555 31.8594 14.3555C31.8594 14.3555 35.5391 13.6484 36.6484 18.7578C37.0664 20.6719 37.3477 23.7383 37.5859 25.8828C37.6016 26.0352 37.8086 26.0664 37.8672 25.9258C38.2383 25.0742 38.9805 23.3867 39.1562 21.6641C39.2187 21.0586 40.8516 20.2578 41.5547 17.6562C42.4961 14.1875 41.3438 10.8516 40.6523 9.8086Z" fill="#543930"/>
<path d="M39.1484 21.6797C39.2109 21.0742 40.8438 20.2734 41.5469 17.6719C41.6211 17.3945 41.6836 17.1133 41.7422 16.832C42.3125 13.6719 41.2891 10.7695 40.6523 9.80859C39.7695 8.47656 37.8789 6.72656 36.0859 6.36719C35.9297 6.34766 35.7773 6.32812 35.6328 6.32031C35.6328 6.32031 35.7617 7.16016 35.4219 7.82813C34.9844 8.69531 34.0898 8.90234 34.0898 8.90234C38.7656 13.582 38.4336 17.4961 39.1484 21.6797Z" fill="url(#paint7_radial_0_303)"/>
<path d="M22.2461 2.88672C21.8164 3.09375 21.4414 3.30078 21.1133 3.47656C20.7383 3.67969 18.3125 5.02734 16.6172 4.0625C15.5742 3.46875 15.5742 1.88281 15.5742 1.82812C15.0937 2.44141 13.6406 6.82031 17.8906 7.11328C19.7227 7.23828 20.8516 5.64062 21.5234 4.28906C21.7656 3.79687 22.1445 3.07812 22.2461 2.88672Z" fill="url(#paint8_radial_0_303)"/>
<path d="M30.9219 2.13672C33.7813 2.91016 35.1758 4.36719 35.6406 6.3086C35.7773 6.87891 35.9414 12.1992 25.7852 6.15235C22.0078 3.90235 23.0391 2.4961 23.4805 2.33594C25.207 1.71094 27.7188 1.26953 30.9219 2.13672Z" fill="url(#paint9_radial_0_303)"/>
<path d="M15.5625 1.82812C15.5586 1.83203 15.5508 1.83203 15.5391 1.83984C15.5391 1.83984 15.5391 1.83984 15.5352 1.83984C15.1719 1.99219 12.3164 3.31641 13.3828 6.625L16.4219 7.11328C13.7305 4.38672 15.5742 1.82031 15.5742 1.82031C15.5742 1.82031 15.5664 1.82422 15.5625 1.82812Z" fill="url(#paint10_radial_0_303)"/>
<path d="M15.2617 6.92578L13.3828 6.625C13.3086 6.625 13.0586 6.64844 12.9219 6.66797C11.8633 6.81641 10.6172 7.36328 9.94141 8.76172C9.21484 10.2695 9.23437 11.5625 9.43359 12.4258C9.49219 12.7148 9.60937 13.043 9.60937 13.043C9.60937 13.043 10.5391 12.1602 12.7539 12.1016L15.2617 6.92578Z" fill="url(#paint11_radial_0_303)"/>
<path d="M9.51953 13.1172C8.59375 13.9375 7.34766 15.7695 8.26562 18.043C8.95703 19.7578 11.4258 20.5 11.4258 20.5C11.4258 20.5078 11.918 20.6563 12.1719 20.6563L12.75 12.1016C11.5664 12.1016 10.4297 12.457 9.69531 12.9688C9.70703 12.9805 9.51562 13.1055 9.51953 13.1172Z" fill="url(#paint12_radial_0_303)"/>
<path opacity="0.2" d="M32.1953 29C32.8789 27.2695 32.7578 26.4336 32.2578 24.8476C32.1289 24.4375 32.0508 23.543 32.0234 23.2383C31.9219 22.0742 32.3203 20.6016 32.5742 20.3086C33.0391 19.7734 33.1719 19.1953 33.1133 18.5976C33.0273 17.7305 31.5937 16.6406 30.0234 18.2695C29.3906 18.9297 29.1211 19.9805 29.1211 19.9805C28.4141 18.2969 27.1758 15.3203 27.0156 14.9414L26.9922 14.8828C26.7383 14.2461 26.2578 13.7578 25.6836 13.5547C25.1641 13.3672 24.6055 13.418 24.1055 13.6914C23.7617 13.8789 23.4922 14.168 23.3242 14.5117C22.7852 14.0039 22.0898 13.8242 21.3984 14.0586C20.8555 14.2422 20.4414 14.6289 20.2344 15.1445C20.0977 15.4883 20.0586 15.8672 20.1172 16.25C19.6914 16.1719 19.25 16.25 18.8516 16.4844C18.4844 16.7031 17.3633 17.543 18.2695 19.2851C18.2891 19.3242 18.3164 19.375 18.3516 19.4336C18.0078 19.4492 17.7305 19.5625 17.5508 19.6641C17.043 19.9453 16.6953 20.3945 16.5781 20.9336C16.4492 21.5117 16.6016 22.1445 16.9844 22.6641L19.3984 26.2031C19.3984 26.2031 20.9102 28.4922 21.5312 29.4453C22.0273 30.2031 22.582 30.8242 23.1914 31.293C23.0586 31.6797 23.082 32.0937 23.2461 32.4336L29.082 48.4375H42.5469C42.5469 48.4375 32.1992 29.0039 32.1953 29Z" fill="url(#paint13_linear_0_303)"/>
<path d="M31.9414 17.9102C31.5195 17.75 30.8359 17.9063 30.2344 18.6367C29.6328 19.3672 29.8398 20.3789 29.5898 21.0117C29.5078 21.2149 29.2227 21.2149 29.1406 21.0117C28.5937 19.668 26.5234 14.7578 26.5234 14.7578C26.2578 14.0899 25.6289 13.7188 25.0117 14.0586C24.5195 14.3281 24.4297 14.9414 24.6562 15.5L26.332 19.9961C26.3555 20.0547 26.332 20.1211 26.2812 20.1445C26.2266 20.1719 26.1562 20.1484 26.125 20.0859L23.4375 15.2031C23.1602 14.6719 22.6797 14.3164 22.1484 14.4961C21.4883 14.7188 21.3437 15.4375 21.6758 16.0781L24.1055 21.0469C24.168 21.168 24.1289 21.3086 24.0234 21.375C24.0234 21.375 24.0195 21.375 24.0195 21.3789C23.9102 21.4453 23.7617 21.4024 23.6914 21.2813C23.6914 21.2813 21.5586 17.9102 21.2617 17.418C20.9648 16.9258 20.3945 16.4766 19.7852 16.8359C19.1758 17.1953 19.2734 17.7813 19.5703 18.3477C19.8242 18.832 21.3711 21.4492 21.8203 22.2031C21.8867 22.3164 21.8516 22.4609 21.7422 22.5313C21.6406 22.5977 21.5039 22.5742 21.4258 22.4805L19.7969 20.5078C19.3945 20.0195 18.9492 19.7617 18.4609 20.0313C17.8516 20.3672 17.8008 21.043 18.2266 21.625L20.6484 25.1758C20.6484 25.1758 22.1641 27.4688 22.7852 28.4219C24.4219 30.9297 26.1523 30.8594 26.5039 30.8672C27.418 30.8867 29.332 30.082 29.9492 29.7852C33.3984 28.1289 31.6719 25.1211 31.5156 23.3281C31.418 22.2227 31.8398 20.1602 32.3867 19.4414C32.9141 18.7227 32.2969 18.043 31.9414 17.9102Z" fill="url(#paint14_linear_0_303)"/>
<path d="M30.7383 48.4375L24.5898 31.6016C24.582 31.5859 24.5781 31.5664 24.5664 31.5508C24.4961 31.4062 24.4883 31.2422 24.5469 31.0937C24.6055 30.9453 24.7148 30.8242 24.8594 30.7617L31.3359 27.9141C31.4102 27.8828 31.4922 27.8633 31.5703 27.8633C31.7891 27.8633 31.9883 27.9844 32.0898 28.1758L43.7266 48.4375H30.7383Z" fill="url(#paint15_linear_0_303)"/>
<defs>
<radialGradient id="paint0_radial_0_303" cx="0" cy="0" r="1" gradientUnits="userSpaceOnUse" gradientTransform="translate(30.6964 32.0898) scale(9.14805 4.49352)">
<stop offset="0.7275" stop-color="#6D4C41" stop-opacity="0"/>
<stop offset="1" stop-color="#6D4C41"/>
</radialGradient>
<radialGradient id="paint1_radial_0_303" cx="0" cy="0" r="1" gradientUnits="userSpaceOnUse" gradientTransform="translate(39.7075 30.7287) rotate(154.924) scale(2.70334 2.00549)">
<stop offset="0.6628" stop-color="#6D4C41"/>
<stop offset="1" stop-color="#6D4C41" stop-opacity="0"/>
</radialGradient>
<radialGradient id="paint2_radial_0_303" cx="0" cy="0" r="1" gradientUnits="userSpaceOnUse" gradientTransform="translate(32.7011 23.0825) rotate(-94.2783) scale(11.8745 9.89665)">
<stop offset="0.7247" stop-color="#6D4C41" stop-opacity="0"/>
<stop offset="1" stop-color="#6D4C41"/>
</radialGradient>
<radialGradient id="paint3_radial_0_303" cx="0" cy="0" r="1" gradientUnits="userSpaceOnUse" gradientTransform="translate(17.308 23.0822) rotate(-85.7217) scale(11.8745 9.89665)">
<stop offset="0.7247" stop-color="#6D4C41" stop-opacity="0"/>
<stop offset="1" stop-color="#6D4C41"/>
</radialGradient>
<radialGradient id="paint4_radial_0_303" cx="0" cy="0" r="1" gradientUnits="userSpaceOnUse" gradientTransform="translate(19.3121 32.0898) rotate(180) scale(9.14805 4.49352)">
<stop offset="0.7275" stop-color="#6D4C41" stop-opacity="0"/>
<stop offset="1" stop-color="#6D4C41"/>
</radialGradient>
<radialGradient id="paint5_radial_0_303" cx="0" cy="0" r="1" gradientUnits="userSpaceOnUse" gradientTransform="translate(10.302 30.729) rotate(25.0761) scale(2.70334 2.00549)">
<stop offset="0.6628" stop-color="#6D4C41"/>
<stop offset="1" stop-color="#6D4C41" stop-opacity="0"/>
</radialGradient>
<radialGradient id="paint6_radial_0_303" cx="0" cy="0" r="1" gradientUnits="userSpaceOnUse" gradientTransform="translate(25.1186 48.3697) scale(24.3546 13.8797)">
<stop offset="0.388" stop-color="#ED6D23"/>
<stop offset="1" stop-color="#F78C1F"/>
</radialGradient>
<radialGradient id="paint7_radial_0_303" cx="0" cy="0" r="1" gradientUnits="userSpaceOnUse" gradientTransform="translate(32.0381 16.8171) rotate(72.0851) scale(13.9189 10.3275)">
<stop offset="0.6985" stop-color="#6D4C41" stop-opacity="0"/>
<stop offset="1" stop-color="#6D4C41"/>
</radialGradient>
<radialGradient id="paint8_radial_0_303" cx="0" cy="0" r="1" gradientUnits="userSpaceOnUse" gradientTransform="translate(18.469 1.64127) rotate(28.2026) scale(3.64953 4.32727)">
<stop offset="0.58" stop-color="#6D4C41"/>
<stop offset="1" stop-color="#6D4C41" stop-opacity="0"/>
</radialGradient>
<radialGradient id="paint9_radial_0_303" cx="0" cy="0" r="1" gradientUnits="userSpaceOnUse" gradientTransform="translate(26.6254 8.26914) rotate(-157.19) scale(11.4139 6.41468)">
<stop offset="0.6985" stop-color="#6D4C41" stop-opacity="0"/>
<stop offset="1" stop-color="#6D4C41"/>
</radialGradient>
<radialGradient id="paint10_radial_0_303" cx="0" cy="0" r="1" gradientUnits="userSpaceOnUse" gradientTransform="translate(17.0034 4.97055) scale(3.34981 4.09782)">
<stop offset="0.7016" stop-color="#6D4C41" stop-opacity="0"/>
<stop offset="1" stop-color="#6D4C41"/>
</radialGradient>
<radialGradient id="paint11_radial_0_303" cx="0" cy="0" r="1" gradientUnits="userSpaceOnUse" gradientTransform="translate(16.5423 10.8835) rotate(-164.942) scale(6.28281 5.87957)">
<stop offset="0.6605" stop-color="#6D4C41" stop-opacity="0"/>
<stop offset="1" stop-color="#6D4C41"/>
</radialGradient>
<radialGradient id="paint12_radial_0_303" cx="0" cy="0" r="1" gradientUnits="userSpaceOnUse" gradientTransform="translate(15.0532 16.9494) rotate(7.83355) scale(6.59615 9.26868)">
<stop offset="0.5981" stop-color="#6D4C41" stop-opacity="0"/>
<stop offset="1" stop-color="#6D4C41"/>
</radialGradient>
<linearGradient id="paint13_linear_0_303" x1="27.5625" y1="33.3155" x2="22.673" y2="35.618" gradientUnits="userSpaceOnUse">
<stop offset="0.5089"/>
<stop offset="1" stop-opacity="0"/>
</linearGradient>
<linearGradient id="paint14_linear_0_303" x1="22.7873" y1="14.2088" x2="29.328" y2="29.1797" gradientUnits="userSpaceOnUse">
<stop offset="0.5" stop-color="#FFCA28"/>
<stop offset="1" stop-color="#FFB300"/>
</linearGradient>
<linearGradient id="paint15_linear_0_303" x1="26.4331" y1="42.5337" x2="32.8848" y2="39.9991" gradientUnits="userSpaceOnUse">
<stop offset="0.388" stop-color="#ED6D23"/>
<stop offset="1" stop-color="#F78C1F"/>
</linearGradient>
</defs>
</svg>
