<svg width="46" height="49" viewBox="0 0 46 49" fill="none" xmlns="http://www.w3.org/2000/svg">
<path d="M44.0024 7.804C43.9664 5.22 41.0424 2.992 39.1104 2.544C37.1784 2.092 33.5984 2.128 32.7304 5.152C32.7304 5.152 32.6704 4.888 32.6504 4.68C32.3024 1.416 28.9784 0.399998 26.6104 0.399998C24.4344 0.399998 20.3144 1.512 20.5824 4.82L19.8904 4.792C19.3064 2.728 15.5664 2.008 12.7504 2.772C10.8384 3.292 7.80238 5.74 8.80638 9.084C8.89038 9.364 8.98638 9.664 9.09038 9.972C7.01438 8.04 4.78238 7.752 2.77038 8.696C0.622384 9.7 -0.529616 11.62 0.238384 14.512C0.270384 14.628 0.306383 14.744 0.338383 14.86C-0.237617 20.36 -0.125616 28.52 1.96238 33.896C6.68638 46.064 14.9864 47.196 20.0824 47.348C42.3304 48.016 44.2544 31.98 44.1904 29.856C44.1264 27.784 44.1984 24.38 43.3544 22.532C43.3544 22.528 44.0224 9.3 44.0024 7.804Z" fill="#FFCA28"/>
<path d="M10.0464 30.624C11.2904 31.376 12.6984 32.204 13.9024 33.016C16.7944 34.972 18.7784 37.7 20.7064 40.612C21.2504 35.604 24.5184 31.5 28.9344 29.372C29.5064 29.1 31.3624 28.416 31.9464 28.18C32.7104 27.94 33.2744 27.652 32.9904 26.616C32.7384 25.264 32.0704 24.052 30.5864 24.22C28.8784 24.216 27.1704 23.944 25.5504 23.412C22.1584 22.54 20.6984 19.068 21.7184 16.012C21.7184 16.012 20.6984 15.456 20.1184 16.088C18.4424 17.912 17.0584 17.524 15.8024 17.42C14.5784 17.308 13.1864 16.632 12.7944 15.396C12.7944 15.396 12.0304 15.624 11.8984 15.676C12.1744 21.184 6.12237 23.204 2.67837 18.884C2.39437 19.084 1.93437 19.504 2.00237 19.844C2.85837 24.284 6.16237 28.308 10.0464 30.624Z" fill="#FFB300"/>
<path d="M33.7304 14.492C33.8864 13.224 33.7744 11.412 33.8104 9.984C33.8744 7.388 33.3544 5.512 33.0464 4.72C32.9064 4.356 32.6184 4.368 32.6184 4.368C32.3024 5.064 31.7904 13.344 31.6784 14.496H33.7304V14.492Z" fill="#EDA600"/>
<path d="M20.8984 21.008C20.1064 21.552 18.7304 21.948 17.0064 21.484C15.8744 21.18 14.8664 20.18 14.3464 18.768C13.5824 16.696 12.3104 13.052 11.4824 11.808C10.7384 10.692 9.38241 9.46 8.63441 9.104C7.41041 8.524 6.47041 8.408 6.47041 8.408C7.01441 8.716 8.80241 10.32 9.47841 11.692C10.5104 13.78 11.8344 16.792 12.2984 19.732C12.5384 21.256 12.7544 22.232 12.0824 22.992C11.4504 23.712 10.0384 24.488 8.25041 24.46C7.07841 24.44 6.02241 23.516 4.85441 22.076C2.90241 19.656 0.114407 13.872 0.114407 13.872C0.114407 13.872 0.0704074 14.94 0.318407 16.328C0.566407 17.716 1.18641 19.828 2.34641 21.872C3.09441 23.192 4.81841 25.996 7.57841 26.528C10.3344 27.06 11.5784 26.1 12.6704 25.428C13.8944 24.672 14.4944 23.172 14.5304 22.712C14.5304 22.712 15.7944 24.388 18.7344 24.016C20.9304 23.736 22.6664 22.312 22.6744 22.328L20.8984 21.008Z" fill="#EDA600"/>
<path d="M21.7984 15.156L23.8904 14.9C23.4224 10.212 21.8544 7.136 21.2504 5.824C20.6464 4.512 19.2424 3.772 19.2424 3.772C19.2504 3.804 21.0504 9.796 21.7984 15.156Z" fill="#EDA600"/>
<path d="M43.9784 7.26C43.9304 7.028 43.5944 7.04 43.5664 7.276C43.3344 9.176 43.3864 13.876 42.1984 16.376C41.8304 17.152 40.7944 17.092 40.6464 17.528C40.4704 18.044 44.0504 24.168 44.1424 23.288C45.0624 14.48 44.3984 9.364 43.9784 7.26Z" fill="#EDA600"/>
<path d="M12.8864 32.676C12.7344 32.492 12.7704 32.224 12.9504 32.068C18.4384 27.256 23.4064 25.376 32.5344 24.096L32.9944 25.756C23.4784 27.5 19.8504 28.484 13.4424 32.764C13.2624 32.884 13.0224 32.84 12.8864 32.676Z" fill="#EDA600"/>
<path d="M20.6824 41.924C20.4224 41.896 20.2264 41.664 20.2464 41.4C20.8264 33.652 25.1384 28.072 33.2744 26.516L33.7144 28.472C24.6024 30.52 21.6384 37.3 21.2224 41.492C21.1944 41.764 20.9504 41.956 20.6824 41.924Z" fill="#EDA600"/>
<path d="M22.3504 48.4C11.9144 48.4 7.7984 42.888 7.7984 42.888C7.7984 42.888 13.0064 46.844 21.8944 46.944C28.5024 47.02 34.6744 44.876 39.0864 40.136C42.6184 36.34 43.2544 32.82 43.4344 30.172C43.6864 26.412 42.3744 21.564 40.1224 18.392C38.1744 15.648 36.9104 15.288 34.9584 14.972C33.0064 14.656 30.1184 15.488 25.3184 15.052C23.4584 14.884 21.9784 15.256 21.9624 17.94C21.9544 19.296 22.5944 21.08 24.9624 22.116C27.2784 23.132 29.6704 22.9 31.6184 22.628C32.1184 22.56 33.0424 22.608 33.7144 24.116C33.8024 24.316 35.3984 28.896 35.8224 29.808C36.2464 30.72 35.8824 31.124 35.3544 31.14C34.8264 31.156 34.2224 30.42 33.8384 29.868C33.4544 29.316 32.4304 27.348 31.9784 26.092C31.5464 24.892 31.0584 25.044 30.4944 25.012C29.0784 24.94 25.6064 25.252 22.8184 23.172C20.8304 21.692 20.2024 20.46 19.9784 17.952C19.7544 15.42 20.5384 14.564 21.6704 13.728C22.5704 13.064 23.5784 12.896 24.8824 12.968C26.5784 13.068 28.6504 13.232 29.7464 13.116C30.8424 13 34.4904 12.784 35.7944 13.084C37.0944 13.384 39.7024 14.26 41.8784 17.416C44.2264 20.82 45.3224 24.544 45.3224 29.244C45.3224 33.616 43.9984 37.952 40.6344 41.468C36.9864 45.288 33.0464 48.4 22.3504 48.4Z" fill="#EDA600"/>
</svg>
